<?xml version="1.0" encoding="UTF-8"?>
<svg version="1.1" xmlns="http://www.w3.org/2000/svg" width="300" height="300" viewBox="0 0 300 300">
    <!-- Outer Shape with Rounded Corners -->
    <rect x="0" y="0" width="300" height="300" rx="50" ry="50" fill="#FDFDFE"/>

    <!-- Inner Shape with Blue Path -->
    <path d="M0 0 C60.72 0 121.44 0 184 0 C184 7.26 184 14.52 184 22 C130.54 22 77.08 22 22 22 C22 67.87 22 113.74 22 161 C27.3596551 156.31030179 31.59396628 152.28515102 35.88723755 146.85690308 C45.83819029 134.90036319 55.79199546 123.1123161 71.94619691 121.02784026 C80.81437874 120.23323372 89.70181268 120.5478447 98.58133841 120.95818186 C103.43250638 121.14915725 108.28460019 121.16359974 113.13894653 121.19894409 C122.28058033 121.29123645 131.41111016 121.53595726 140.54790795 121.83942878 C150.9700361 122.17787573 161.39277182 122.34045087 171.8190496 122.49029183 C193.22022691 122.80169622 214.60623155 123.35045233 236 124 C236 107.5 236 91 236 74 C243.59 74 251.18 74 259 74 C259 98.09 259 122.18 259 147 C253.40144043 146.87318848 247.80288086 146.74637695 242.03466797 146.61572266 C223.43597832 146.21680938 204.83788804 145.98495894 186.2355938 145.83678627 C174.96733585 145.74302787 163.70512836 145.59420825 152.43994141 145.30957031 C142.60561669 145.06123252 132.77646099 144.92250015 122.93891633 144.9083122 C117.74026405 144.89716984 112.5544664 144.83603177 107.35912704 144.64290237 C88.33339472 143.96591649 72.09229911 143.45436852 57.37790072 156.89436996 C50.6552794 163.4190508 44.65074 170.5388801 39 178 C23.3493113 170.43413149 7.42028358 156.84131609 0 141 C-3.28952956 129.87716124 -3.42342547 118.25932451 -3.41796875 106.73828125 C-3.41888275 106.03789285 -3.41979676 105.33750446 -3.42073846 104.61589217 C-3.40434527 92.49556712 -2.73549623 80.42425595 -2.1875 68.3125 C-1.465625 45.769375 -0.74375 23.22625 0 0 Z" fill="#0B1690" transform="translate(21,61)"/>

    <!-- Inner Shape with Icon or Another Path -->
    <path d="M0 0 C4.08307169 3.49977573 7.89541384 6.77188425 11.625 10.5625 C12.33914062 11.28566406 13.05328125 12.00882813 13.7890625 12.75390625 C14.51867187 13.49511719 15.24828125 14.23632812 16 15 C16.78503906 15.78503906 17.57007813 16.57007812 18.37890625 17.37890625 C20.2756049 19.2756049 22.16577312 21.17770484 24.05078125 23.0859375 C25.13798785 24.18232437 26.2252279 25.27867808 27.3125 26.375 C27.84294922 26.91382812 28.37339844 27.45265625 28.91992188 28.0078125 C31.74547179 30.85028187 34.62174451 33.566562 37.66796875 36.171875 C42.82827707 40.63467679 47.61884398 45.46878534 52.43017578 50.29980469 C54.02130843 51.89638134 55.61782715 53.48743611 57.21484375 55.078125 C58.226884 56.09082465 59.23861476 57.1038337 60.25 58.1171875 C61.16265625 59.03097168 62.0753125 59.94475586 63.015625 60.88623047 C65 63 65 63 65 64 C43.55 64 22.1 64 0 64 C0 42.88 0 21.76 0 0 Z" fill="#0D1890" transform="translate(215,61)"/>
</svg>
