<?xml version="1.0" encoding="UTF-8"?>
<svg version="1.1" xmlns="http://www.w3.org/2000/svg" width="2688" height="976">
<path d="M0 0 C887.04 0 1774.08 0 2688 0 C2688 322.08 2688 644.16 2688 976 C1800.96 976 913.92 976 0 976 C0 653.92 0 331.84 0 0 Z " fill="#FEFEFE" transform="translate(0,0)"/>
<path d="M0 0 C0.8353125 0.75152344 1.670625 1.50304687 2.53125 2.27734375 C3.00949219 2.70644043 3.48773437 3.13553711 3.98046875 3.57763672 C27.97117528 25.41750548 38.3729048 57.1572279 40.37451172 88.91162109 C41.47140159 112.46570804 42.16705989 138.09829429 37.53125 161.27734375 C-32.75875 161.27734375 -103.04875 161.27734375 -175.46875 161.27734375 C-174.06619116 177.5338277 -174.06619116 177.5338277 -171.65625 193.58984375 C-171.39968628 194.95435669 -171.39968628 194.95435669 -171.13793945 196.34643555 C-169.5286488 204.55172416 -167.34947986 212.43124775 -164.46875 220.27734375 C-164.21222656 220.9822998 -163.95570312 221.68725586 -163.69140625 222.41357422 C-155.11504726 245.56256233 -140.60609227 263.19107528 -117.96557617 273.59667969 C-101.90837079 280.61399497 -84.88268929 282.67545376 -67.46875 282.65234375 C-66.46593994 282.65202652 -66.46593994 282.65202652 -65.44287109 282.65170288 C-37.40261089 282.56388979 -10.98329403 274.64622192 12.53125 259.27734375 C16.46775025 265.68422132 20.24986025 272.17968204 23.96875 278.71484375 C24.66073486 279.904729 24.66073486 279.904729 25.36669922 281.11865234 C25.79096191 281.87098145 26.21522461 282.62331055 26.65234375 283.3984375 C27.0383374 284.07318115 27.42433105 284.7479248 27.82202148 285.44311523 C28.53125 287.27734375 28.53125 287.27734375 27.53125 290.27734375 C25.03658676 291.96895138 22.60176567 293.45418513 19.96875 294.90234375 C18.78055664 295.55614014 18.78055664 295.55614014 17.56835938 296.22314453 C1.8926544 304.55801687 -14.99371114 310.27517346 -32.46875 313.27734375 C-33.2417041 313.42397461 -34.0146582 313.57060547 -34.81103516 313.72167969 C-60.81704684 318.58701682 -88.68095103 318.02212708 -114.46875 312.27734375 C-115.30132324 312.0954248 -116.13389648 311.91350586 -116.99169922 311.72607422 C-145.41343295 305.28412161 -170.03903625 288.85722048 -185.81860352 264.19848633 C-189.66608965 257.98092913 -192.85593773 251.56484255 -195.71875 244.83984375 C-196.02361328 244.12642822 -196.32847656 243.4130127 -196.64257812 242.67797852 C-201.92730424 229.76721 -205.25233885 216.78873868 -207.35449219 203.03125 C-207.71991533 200.64473316 -208.1046188 198.26191683 -208.4921875 195.87890625 C-210.99584959 180.2149535 -211.67804286 164.74351867 -211.65625 148.90234375 C-211.65484512 147.58074753 -211.65484512 147.58074753 -211.65341187 146.23245239 C-211.60427252 124.85490188 -210.204146 104.600928 -205.08154297 83.77929688 C-204.54039742 81.56987075 -204.03190178 79.35643029 -203.53515625 77.13671875 C-201.09349595 66.9360046 -197.02529746 57.67917457 -192.46875 48.27734375 C-192.14358398 47.60106934 -191.81841797 46.92479492 -191.48339844 46.22802734 C-186.83456599 36.68680714 -181.26122667 28.41981187 -174.46875 20.27734375 C-173.73785156 19.39304687 -173.00695313 18.50875 -172.25390625 17.59765625 C-132.42903596 -28.63664163 -48.16811536 -40.73959108 0 0 Z " fill="#070707" transform="translate(1678.46875,359.72265625)"/>
<path d="M0 0 C12.21 0 24.42 0 37 0 C42.70028827 18.24092247 42.70028827 18.24092247 44.5625 26.5625 C44.98023957 28.36884439 45.39951736 30.17483372 45.8203125 31.98046875 C46.02043945 32.84075684 46.22056641 33.70104492 46.42675781 34.58740234 C47.64506768 39.71488877 49.05055871 44.79213006 50.43017578 49.87792969 C51.60296412 54.24548592 52.7359161 58.6235581 53.875 63 C54.13087891 63.98242676 54.38675781 64.96485352 54.65039062 65.97705078 C55.17442607 67.98922926 55.69835106 70.0014365 56.22216797 72.01367188 C56.9712466 74.88960715 57.72164808 77.76519306 58.47265625 80.640625 C61.45805948 92.07170803 64.42906875 103.50645477 67.39208984 114.94335938 C70.24848631 125.96561514 73.12254216 136.98322702 76 148 C85.56354404 184.61544304 95.05567758 221.2495471 104.38452148 257.92553711 C105.09764146 260.72862991 105.81227054 263.53133206 106.52807617 266.33374023 C107.41481638 269.80539253 108.29914348 273.27765095 109.18171883 276.7503643 C109.67036242 278.67065914 110.16137368 280.59035101 110.65245056 282.51002502 C111.09410301 284.25121864 111.09410301 284.25121864 111.54467773 286.02758789 C111.80256577 287.0399501 112.0604538 288.05231232 112.32615662 289.09535217 C113.01176163 292.0506993 113.53329125 295.00296275 114 298 C114.99 298.33 115.98 298.66 117 299 C117.10836182 297.92814453 117.21672363 296.85628906 117.32836914 295.75195312 C118.04481033 290.06150092 119.40976054 284.54024788 120.74609375 278.96875 C121.02890198 277.77649811 121.31171021 276.58424622 121.60308838 275.35586548 C122.38038799 272.08641286 123.1619275 268.81803747 123.94601059 265.55020905 C124.43939538 263.49209357 124.93107686 261.43357811 125.42227173 259.37493896 C131.75694816 232.83648142 138.34656815 206.36250317 145.00756836 179.90429688 C145.55972997 177.71034282 146.11184646 175.51637744 146.66389656 173.32239532 C147.01881721 171.91213133 147.37390138 170.50190847 147.72915459 169.09172821 C149.42757593 162.34698234 151.12556461 155.60346504 152.68276978 148.82440186 C152.85577606 148.07539612 153.02878235 147.32639038 153.20703125 146.5546875 C153.47582092 145.38966202 153.7446106 144.22463654 154.02154541 143.02430725 C154.99824237 138.91735716 156.13634605 134.86372008 157.28955078 130.8034668 C160.10272073 120.77873082 162.64511913 110.69276958 165.16015625 100.58984375 C165.63650016 98.68327082 166.11302073 96.77674202 166.58970642 94.87025452 C167.58022691 90.90662317 168.5691885 86.94260752 169.55688477 82.97827148 C170.81056424 77.94655284 172.06734554 72.91561557 173.3252039 67.88494015 C174.30681771 63.95821048 175.28719597 60.03117316 176.26717949 56.10403633 C176.72970891 54.25078113 177.19250489 52.39759244 177.65559578 50.54447746 C178.30680781 47.93741298 178.95665047 45.33001255 179.60571289 42.72241211 C179.81237611 41.89343383 180.01903933 41.06445555 180.23196507 40.21035671 C181.19643976 36.32168661 182.13893475 32.43042309 183.02560425 28.52322388 C183.19107223 27.79852433 183.3565402 27.07382479 183.52702236 26.32716465 C183.96176757 24.40890279 184.38804471 22.48872686 184.8134613 20.56837463 C186.61328424 13.63875197 188.86448784 6.83363891 191 0 C208.82 0 226.64 0 245 0 C247.92219381 10.51989771 250.82967282 21.00474907 253.4618988 31.59535217 C253.65570066 32.37393145 253.84950253 33.15251072 254.04917717 33.9546833 C254.34774463 35.15467366 254.34774463 35.15467366 254.65234375 36.37890625 C255.07905554 38.08695225 255.5059448 39.79495392 255.93299866 41.50291443 C256.82097021 45.05634903 257.70738581 48.61016655 258.5925293 52.16430664 C259.70703172 56.63921345 260.82458638 61.11335052 261.94324398 65.58722019 C262.82371371 69.10937598 263.70293924 72.63184146 264.58178902 76.15440178 C264.99243367 77.80008462 265.40333121 79.44570438 265.81452751 81.09124947 C268.19984335 90.64175018 270.53228188 100.20333501 272.81738281 109.77832031 C276.00079729 123.09909842 279.32054897 136.38507621 282.65595436 149.66841698 C283.74008342 153.98608467 284.82193902 158.30432032 285.90348816 162.62263489 C288.78269107 174.11718983 291.66409626 185.61119221 294.54801929 197.10456383 C310.17045255 259.3656478 310.17045255 259.3656478 315.57421875 282.17578125 C315.76054178 282.9602532 315.94686481 283.74472515 316.138834 284.55296898 C319 296.62844339 319 296.62844339 319 299 C319.99 299 320.98 299 322 299 C322.17789063 297.32550781 322.17789063 297.32550781 322.359375 295.6171875 C322.97736083 290.69706951 324.07705743 285.93863443 325.25 281.125 C325.58378662 279.73764648 325.58378662 279.73764648 325.92431641 278.32226562 C327.47186667 271.96629455 329.18115508 265.6705239 330.98120117 259.38232422 C333.38363422 250.86199195 335.38947075 242.24361849 337.41357422 233.62695312 C339.09780328 226.51424143 340.97589891 219.49218937 343.01586914 212.47363281 C344.63241719 206.76779166 346.0282332 201.00985801 347.4375 195.25 C349.33940397 187.5535714 351.25635568 179.87236863 353.4375 172.25 C355.82784369 163.88430202 357.9091956 155.44419862 360 147 C362.25863102 137.87799466 364.55240411 128.77849855 367.13671875 119.7421875 C369.08233585 112.86767373 370.78454167 105.93494821 372.5 99 C374.38312363 91.38724448 376.28104634 83.79025293 378.4375 76.25 C380.82772213 67.88422254 382.90844777 59.44404477 385 51 C389.25039913 33.85749403 394.01280344 16.95646829 399 0 C410.88 0 422.76 0 435 0 C430.47791859 19.21884601 430.47791859 19.21884601 428.0625 27.3125 C426.05663391 34.17600643 424.19406709 41.05302232 422.5 48 C420.60218703 55.77575086 418.46661844 63.459895 416.23046875 71.14453125 C414.51952417 77.06703173 412.96194854 83.01148669 411.5 89 C409.87454846 95.65157851 408.10628605 102.23963715 406.1875 108.8125 C403.60695292 117.6620201 401.27790981 126.56877198 399 135.5 C396.57108963 145.02066112 394.04865764 154.49854368 391.2890625 163.9296875 C388.83102448 172.41388326 386.66522281 180.97099496 384.48251343 189.52896118 C382.1585848 198.63173797 379.71082293 207.68473422 377.078125 216.703125 C375.41481115 222.43837659 373.91766581 228.19943113 372.5 234 C370.87435725 240.65153427 369.10628839 247.23962913 367.1875 253.8125 C364.6069487 262.66203457 362.278294 271.56886132 360 280.5 C356.87732138 292.7319851 353.53731391 304.88178449 350 317 C348.68 321.62 347.36 326.24 346 331 C328.51 331 311.02 331 293 331 C288.61922671 313.51701566 288.61922671 313.51701566 286.68554688 305.79101562 C285.38994719 300.61448765 284.09413715 295.43801335 282.79663086 290.26196289 C278.39651821 272.70764399 274.02052484 255.14872599 269.765625 237.55859375 C265.98425816 221.93192197 262.10318975 206.3308353 258.19921875 190.734375 C257.74493846 188.91940553 257.74493846 188.91940553 257.28148079 187.06777 C254.77062337 177.03835226 252.25673213 167.00969535 249.74267578 156.9810791 C247.56008604 148.27420405 245.37870042 139.56702861 243.19921875 130.859375 C242.89502895 129.64413651 242.59083916 128.42889801 242.27743149 127.17683411 C237.20945656 106.9212969 232.21165358 86.64913832 227.26978397 66.36247635 C226.8277374 64.55185629 226.38403891 62.74163858 225.93853664 60.93186569 C224.81532676 56.36810287 223.71817014 51.80033296 222.65975952 47.22106934 C222.22330505 45.37491434 221.78683313 43.52876347 221.3503418 41.68261719 C221.06143051 40.39156004 221.06143051 40.39156004 220.76668262 39.07442093 C220.2754585 37.02372872 219.64966725 35.00613363 219 33 C218.01 32.67 217.02 32.34 216 32 C215.8785965 32.81060379 215.75719299 33.62120758 215.6321106 34.45637512 C214.8946042 38.59085099 213.91116912 42.62697353 212.88623047 46.69799805 C212.67299637 47.55283279 212.45976227 48.40766754 212.24006653 49.28840637 C211.53473738 52.11342364 210.82602191 54.93757914 210.1171875 57.76171875 C209.61954827 59.751081 209.12208432 61.7404871 208.62478638 63.72993469 C207.57878792 67.91236367 206.53121155 72.09439314 205.48242188 76.27612305 C204.15887195 81.55356388 202.83833034 86.83175121 201.51885605 92.11021233 C191.79180535 131.01729241 191.79180535 131.01729241 187.23580933 148.40299988 C183.88090998 161.20759539 180.72901691 174.06318344 177.58157539 186.92002487 C176.67244742 190.63195383 175.76082603 194.34327084 174.84960938 198.0546875 C173.70513013 202.7164321 172.56137513 207.37834975 171.4206543 212.04101562 C163.96926484 242.49214526 163.96926484 242.49214526 160.04956055 256.25830078 C158.65195129 261.24079893 157.40833729 266.25746017 156.16992188 271.28125 C154.66145028 277.39363916 153.10113975 283.49287866 151.546875 289.59375 C151.23939331 290.80135986 150.93191162 292.00896973 150.6151123 293.25317383 C149.66037416 297.00219219 148.70519567 300.75109819 147.75 304.5 C147.09367855 307.07680473 146.43746775 309.65363761 145.78125 312.23046875 C144.18792459 318.48708746 142.5939483 324.74353982 141 331 C123.51 331 106.02 331 88 331 C84.96002743 320.66409328 82.02706174 310.448773 79.5 300 C77.64600779 292.45188917 75.77967402 284.9317373 73.5 277.5 C70.87732003 268.95006329 68.77568698 260.27464902 66.67382812 251.58398438 C65.12132314 245.23149928 63.42743065 238.94746598 61.5546875 232.68359375 C59.23337757 224.91712013 57.16128268 217.10449127 55.17666626 209.24597168 C54.21493011 205.43946075 53.24220299 201.63576006 52.26953125 197.83203125 C52.07628769 197.07578461 51.88304413 196.31953796 51.6839447 195.54037476 C49.67809107 187.70941081 47.57687346 179.90506184 45.45800781 172.10400391 C43.54699964 165.06092418 41.69761202 158.00392357 39.875 150.9375 C38.21876735 144.5236473 36.48791279 138.15064455 34.5625 131.8125 C31.9046942 123.05475868 29.77249412 114.17122844 27.58618164 105.28637695 C26.02441705 98.97779839 24.4059179 92.71329235 22.5 86.5 C19.84753974 77.85297956 17.74853823 69.07438026 15.58813477 60.29394531 C14.00514916 53.89994192 12.36101806 47.55001334 10.4375 41.25 C6.29723235 27.68438293 3.07546868 13.83960906 0 0 Z " fill="#060606" transform="translate(1753,341)"/>
<path d="M0 0 C108.24 0 216.48 0 328 0 C328 13.53 328 27.06 328 41 C232.96 41 137.92 41 40 41 C40 122.51 40 204.02 40 288 C47.19817571 281.93010907 47.19817571 281.93010907 51.76631165 274.8478241 C64.34455738 252.53854294 82.3167014 230.99910697 107 222 C130.98279316 215.50980323 157.02152082 216.1864636 181.66796875 216.23828125 C182.52867645 216.23963819 183.38938414 216.24099513 184.27617389 216.2423932 C206.71345995 216.29379186 229.1242843 216.93122024 251.54494488 217.75042331 C264.58140763 218.22152238 277.61536403 218.54117654 290.65844727 218.7590332 C291.58385019 218.77453389 292.50925311 218.79003458 293.46269854 218.80600498 C298.10768168 218.88303226 302.75270064 218.95758378 307.39774358 219.03090727 C345.61544271 219.63735903 383.79771674 220.72164603 422 222 C422 192.3 422 162.6 422 132 C435.2 132 448.4 132 462 132 C462 175.23 462 218.46 462 263 C447.02020752 262.62125732 447.02020752 262.62125732 431.73779297 262.23486328 C399.56001596 261.46043295 367.38296667 260.95950213 335.19773816 260.62465448 C330.17509629 260.57215433 325.15248297 260.51728089 320.12988281 260.4609375 C319.13022917 260.44976335 318.13057552 260.4385892 317.10062934 260.42707644 C301.03995616 260.24192579 284.98939626 259.86586949 268.93421768 259.41555442 C252.38386458 258.95573973 235.839613 258.70960213 219.28295052 258.65018833 C210.00927858 258.61108097 200.75749168 258.48144785 191.49084091 258.10538101 C144.24509406 256.09829201 144.24509406 256.09829201 104.07847519 278.18497221 C91.08666974 290.23570592 79.64357376 303.86229851 69 318 C42.21522139 304.953629 12.11647605 278.33756033 0 251 C-6.61247596 231.54931431 -6.36553122 210.09731293 -6.34765625 189.74609375 C-6.34985928 187.87598912 -6.34985928 187.87598912 -6.35210681 185.9681046 C-6.32024894 164.42026135 -5.08082803 142.96907218 -4.0625 121.4375 C-2.721875 81.363125 -1.38125 41.28875 0 0 Z " fill="#0A1590" transform="translate(420,361)"/>
<path d="M0 0 C100.98 0 201.96 0 306 0 C306 45.54 306 91.08 306 138 C205.02 138 104.04 138 0 138 C0 92.46 0 46.92 0 0 Z " fill="#2D39C4" transform="translate(1149,157)"/>
<path d="M0 0 C1.50930402 1.28078264 3.00901322 2.57293963 4.5 3.875 C5.48226563 4.66003906 6.46453125 5.44507813 7.4765625 6.25390625 C17.41405835 14.54249525 23.27148479 26.30551954 28.5 37.875 C29.27150391 39.52628906 29.27150391 39.52628906 30.05859375 41.2109375 C31.85387412 45.77454993 33.01030525 50.35658357 34.125 55.125 C34.3415625 56.00285156 34.558125 56.88070312 34.78125 57.78515625 C35.09449219 59.10580078 35.09449219 59.10580078 35.4140625 60.453125 C35.5992041 61.23075195 35.7843457 62.00837891 35.97509766 62.80957031 C37.36488714 70.9259409 37.64679994 79.0909317 37.62025452 87.30912781 C37.62153615 88.79330467 37.62153615 88.79330467 37.62284368 90.3074649 C37.62447775 93.59000537 37.61901138 96.87249361 37.61352539 100.1550293 C37.61324304 102.52115376 37.61340218 104.8872783 37.6139679 107.25340271 C37.61425402 113.65338138 37.60838719 120.05334119 37.60139394 126.4533155 C37.59576494 132.47118616 37.59476953 138.48905616 37.59374207 144.5069289 C37.5915584 156.41925497 37.58491694 168.33157415 37.57543945 180.24389648 C37.56624758 191.80932582 37.55917544 203.37475329 37.55493164 214.94018555 C37.55466892 215.65417453 37.55440619 216.36816351 37.55413551 217.10378852 C37.55283038 220.68598863 37.5515667 224.26818875 37.55032361 227.85038888 C37.53997233 257.52526394 37.52209573 287.20013131 37.5 316.875 C25.95 316.875 14.4 316.875 2.5 316.875 C2.49413376 313.96643188 2.48826752 311.05786377 2.48222351 308.06115723 C2.42694307 281.3337936 2.35692354 254.60649361 2.27101372 227.87921175 C2.25974676 224.36983293 2.24860812 220.86045371 2.23754883 217.35107422 C2.2342433 216.30317796 2.2342433 216.30317796 2.230871 215.23411208 C2.1955849 203.95114418 2.17067188 192.66817633 2.14965298 181.38517386 C2.12782145 169.79112457 2.09448277 158.19714989 2.05129844 146.60316038 C2.02742794 140.09800268 2.00865873 133.59292322 2.00238609 127.08772278 C1.99630732 120.95474446 1.97620693 114.82196617 1.94572449 108.68906212 C1.93698888 106.44789205 1.9332123 104.2066958 1.93499184 101.96550941 C1.94739301 79.12408588 -0.72581154 57.85569989 -14.5 38.875 C-15.221875 37.84375 -15.94375 36.8125 -16.6875 35.75 C-28.75462618 22.19407253 -47.62050071 15.03956948 -65.40722656 13.64746094 C-93.42580541 12.24432581 -118.95216878 19.28350231 -140.3359375 37.91821289 C-150.9340088 47.51935267 -164.90904955 63.24833436 -166.77993333 78.09670627 C-166.89307259 80.69068694 -166.91244816 83.26963604 -166.89872742 85.86607361 C-166.90537424 86.8561907 -166.91202107 87.84630779 -166.91886932 88.86642843 C-166.93748223 92.17529911 -166.93489512 95.48380764 -166.93237305 98.79272461 C-166.94139122 101.16811635 -166.95171857 103.54350344 -166.96325684 105.91888428 C-166.9879833 111.69383957 -166.99907727 117.46870463 -167.00413426 123.24370801 C-167.01075799 129.96567188 -167.0342308 136.68754519 -167.05872939 143.40946383 C-167.10197025 155.39608684 -167.13195241 167.38270468 -167.15356445 179.36938477 C-167.17458225 191.0106867 -167.20186432 202.65194627 -167.23754883 214.29321289 C-167.23974765 215.01123976 -167.24194648 215.72926663 -167.24421193 216.46905189 C-167.25528179 220.07131894 -167.26647456 223.6735856 -167.27772844 227.27585208 C-167.37087529 257.14219906 -167.44167113 287.00856346 -167.5 316.875 C-179.05 316.875 -190.6 316.875 -202.5 316.875 C-202.5 207.645 -202.5 98.415 -202.5 -14.125 C-193.92 -14.125 -185.34 -14.125 -176.5 -14.125 C-175.49803261 -9.80273762 -174.49945702 -5.47996859 -173.50927734 -1.1550293 C-173.17171169 0.31482154 -172.83221557 1.78423045 -172.49072266 3.25317383 C-171.99909619 5.36946095 -171.51452401 7.48726074 -171.03125 9.60546875 C-170.59135742 11.51428833 -170.59135742 11.51428833 -170.14257812 13.46166992 C-169.59246994 16.38380614 -169.36165603 18.91789756 -169.5 21.875 C-165.09460247 20.70886536 -163.33598002 18.50085143 -160.53515625 15.0625 C-122.97984896 -25.30404911 -44.11240759 -34.92232267 0 0 Z " fill="#060606" transform="translate(1356.5,355.125)"/>
<path d="M0 0 C22.87890758 -0.41553571 45.5390805 3.62276631 66.40625 13.12109375 C67.46199219 13.59417969 68.51773438 14.06726563 69.60546875 14.5546875 C78.78285258 18.89073697 86.5323735 24.78255274 94.40625 31.12109375 C92.84392979 34.80065666 90.57040918 37.28625168 87.84375 40.18359375 C83.41703842 44.9434298 79.37470103 49.84484572 75.4140625 55.00390625 C73.40625 57.12109375 73.40625 57.12109375 71.38671875 58.140625 C69.40625 58.12109375 69.40625 58.12109375 67.57421875 56.75 C66.92066406 56.06808594 66.26710938 55.38617188 65.59375 54.68359375 C55.79953016 45.51453688 43.16347509 40.67373871 30.40625 37.12109375 C29.30796875 36.80140625 28.2096875 36.48171875 27.078125 36.15234375 C3.33176173 30.2970761 -24.57646001 32.82155608 -45.90625 44.99609375 C-57.53684997 52.42989147 -65.23639315 61.90163892 -68.9296875 75.40625 C-71.39875886 89.21852568 -70.45765127 102.51768223 -63.01953125 114.69921875 C-61.33667369 117.00579275 -59.56741904 119.05917121 -57.59375 121.12109375 C-56.95953125 121.78367187 -56.3253125 122.44625 -55.671875 123.12890625 C-38.36295947 139.72203955 -13.55880546 147.12002695 8.46875 155.12109375 C41.87983111 167.26558278 75.53138764 180.63445151 92.40625 214.12109375 C94.01316979 217.73055797 95.29505893 221.33123436 96.40625 225.12109375 C96.70402344 226.11367188 97.00179687 227.10625 97.30859375 228.12890625 C102.98151716 249.40890466 99.07074389 273.08081088 88.40625 292.12109375 C85.988836 296.03749478 83.36119259 299.59659162 80.40625 303.12109375 C79.73078125 303.95769531 79.0553125 304.79429687 78.359375 305.65625 C60.3449318 326.92512728 33.46330798 337.37565383 6.40625 341.12109375 C5.47941406 341.25128906 4.55257812 341.38148438 3.59765625 341.515625 C-38.62733112 346.11195889 -85.09319037 336.39859859 -118.77734375 309.6171875 C-121.40594879 307.47746951 -124.01181028 305.31675902 -126.59375 303.12109375 C-125.07234548 299.69990431 -123.06014661 297.10642642 -120.65625 294.24609375 C-116.87560209 289.69576997 -113.17829557 285.09169558 -109.53125 280.43359375 C-109.04213135 279.8092041 -108.5530127 279.18481445 -108.04907227 278.54150391 C-106.89638327 277.06874947 -105.74492684 275.59503046 -104.59375 274.12109375 C-101.39075736 275.53752827 -99.23290798 277.26237157 -96.71875 279.68359375 C-71.57683787 302.29087409 -37.79398831 309.45163161 -4.89160156 308.31201172 C13.28829407 307.25954811 31.7217712 302.75510426 45.40625 290.12109375 C46.02757813 289.57839844 46.64890625 289.03570313 47.2890625 288.4765625 C56.17489141 280.26390245 62.33499317 268.32933464 62.9375 256.18359375 C62.94794358 254.16276056 62.93741637 252.14171359 62.90625 250.12109375 C62.92945312 248.61675781 62.92945312 248.61675781 62.953125 247.08203125 C62.90570683 237.90661524 60.8860894 229.18477098 54.71875 222.12109375 C52.58466939 219.63514118 51.45554555 218.26898041 50.40625 215.12109375 C49.09660128 214.40902462 47.75897017 213.74748849 46.40625 213.12109375 C45.15885099 212.12262137 43.93136598 211.09903302 42.71875 210.05859375 C29.03872151 199.3793457 12.428284 193.80404082 -3.65930176 187.83911133 C-56.68899464 168.15584929 -56.68899464 168.15584929 -72.59375 156.12109375 C-73.54507813 155.40179688 -74.49640625 154.6825 -75.4765625 153.94140625 C-89.57735601 142.83751164 -98.8835359 129.51624087 -103.59375 112.12109375 C-104.12935547 110.34025391 -104.12935547 110.34025391 -104.67578125 108.5234375 C-109.51328616 88.81990788 -105.34456472 65.64230384 -95.59375 48.12109375 C-92.91783968 43.86659736 -89.80657401 39.9800392 -86.59375 36.12109375 C-86.08070313 35.45722656 -85.56765625 34.79335938 -85.0390625 34.109375 C-69.11565444 14.09266148 -41.11919458 3.94146601 -16.54248047 0.86425781 C-11.0363586 0.28872419 -5.52828093 0.18627903 0 0 Z " fill="#070707" transform="translate(2323.59375,335.87890625)"/>
<path d="M0 0 C11.55 0 23.1 0 35 0 C31.62650602 13.4939759 31.62650602 13.4939759 30.09765625 18.18359375 C29.59782227 19.72950195 29.59782227 19.72950195 29.08789062 21.30664062 C28.74951172 22.33982422 28.41113281 23.37300781 28.0625 24.4375 C27.38595324 26.51928263 26.71017363 28.60131472 26.03515625 30.68359375 C25.69629395 31.7288623 25.35743164 32.77413086 25.00830078 33.85107422 C23.67671316 38.00962559 22.40061999 42.18429112 21.12280273 46.35961914 C18.53363927 54.75427373 15.86095207 63.1230674 13.20898438 71.49804688 C10.43787911 80.25143895 7.67816159 89.00718728 4.98803711 97.78588867 C0.79164013 111.43688108 -3.53659212 125.04721332 -7.84594727 138.6628418 C-11.45608653 150.06460679 -11.45608653 150.06460679 -14.99609375 161.48828125 C-17.86280031 170.84517008 -20.83678631 180.16851775 -23.79101562 189.49804688 C-27.43132392 200.98783115 -27.43132392 200.98783115 -31 212.5 C-33.86511779 221.85307046 -36.83802912 231.17244258 -39.79101562 240.49804688 C-42.56212089 249.25143895 -45.32183841 258.00718728 -48.01196289 266.78588867 C-52.20835987 280.43688108 -56.53659212 294.04721332 -60.84594727 307.6628418 C-64.45608653 319.06460679 -64.45608653 319.06460679 -67.99609375 330.48828125 C-70.86280031 339.84517008 -73.83678631 349.16851775 -76.79101562 358.49804688 C-79.56212089 367.25143895 -82.32183841 376.00718728 -85.01196289 384.78588867 C-89.20835987 398.43688108 -93.53659212 412.04721332 -97.84594727 425.6628418 C-101.45608653 437.06460679 -101.45608653 437.06460679 -104.99609375 448.48828125 C-107.86280031 457.84517008 -110.83678631 467.16851775 -113.79101562 476.49804688 C-117.15651382 487.12901264 -120.48695061 497.76902023 -123.74316406 508.43408203 C-124.36784236 510.47769845 -124.99596946 512.52021991 -125.625 514.5625 C-125.82867188 515.23345703 -126.03234375 515.90441406 -126.2421875 516.59570312 C-127.27570451 519.93807063 -128.42592614 522.85185227 -130 526 C-140.89 526 -151.78 526 -163 526 C-162.27600667 520.20805333 -161.51239073 515.89871591 -159.75 510.5 C-159.29668876 509.09381002 -158.84356917 507.68755825 -158.390625 506.28125 C-158.15923828 505.57097656 -157.92785156 504.86070312 -157.68945312 504.12890625 C-156.59879813 500.76116138 -155.55074357 497.38036363 -154.5 494 C-154.08355599 492.66659711 -153.66688885 491.33326388 -153.25 490 C-153.04375 489.34 -152.8375 488.68 -152.625 488 C-132 422 -111.375 356 -10.75 34 C-10.5435083 33.33919434 -10.3370166 32.67838867 -10.12426758 31.99755859 C-9.71011655 30.67234008 -9.29589202 29.34714454 -8.8815918 28.02197266 C-7.80081324 24.56467316 -6.721546 21.1069115 -5.64453125 17.6484375 C-5.42152344 16.93300781 -5.19851563 16.21757812 -4.96875 15.48046875 C-4.54509509 14.12124259 -4.12188567 12.76187746 -3.69921875 11.40234375 C-2.50877625 7.58499147 -1.2648487 3.79454609 0 0 Z " fill="#070707" transform="translate(1080,224)"/>
<path d="M0 0 C20.7943495 16.42155891 28.01254342 38.55028224 31.9375 64.0625 C31.9375 77.5925 31.9375 91.1225 31.9375 105.0625 C-27.4625 105.0625 -86.8625 105.0625 -148.0625 105.0625 C-148.0625 91.53312315 -148.0625 91.53312315 -147.36328125 87.01953125 C-147.1314917 85.51592041 -147.1314917 85.51592041 -146.89501953 83.98193359 C-146.72341309 82.95664551 -146.55180664 81.93135742 -146.375 80.875 C-146.19565918 79.78783691 -146.01631836 78.70067383 -145.83154297 77.58056641 C-144.26259055 68.48548235 -142.11968908 59.76681126 -139.0625 51.0625 C-138.84368164 50.42699219 -138.62486328 49.79148437 -138.39941406 49.13671875 C-132.92271528 33.52534514 -124.8014344 20.66433736 -113.0625 9.0625 C-112.33417969 8.32386719 -111.60585937 7.58523438 -110.85546875 6.82421875 C-82.75937361 -20.02084432 -31.35218959 -21.99849767 0 0 Z " fill="#FDFDFD" transform="translate(1651.0625,382.9375)"/>
<path d="M0 0 C4.43446705 3.80097176 8.65221634 7.51785144 12.72265625 11.66015625 C13.23122665 12.17251328 13.73979706 12.6848703 14.26377869 13.2127533 C15.86585206 14.8268824 17.46459621 16.44424383 19.0625 18.0625 C21.17538994 20.20221218 23.2917297 22.33842698 25.41015625 24.47265625 C25.88219986 24.9529982 26.35424347 25.43334015 26.84059143 25.92823792 C30.07151763 29.18249442 33.46568647 32.08922314 37 35 C38.07734208 36.17663628 39.12372957 37.38298695 40.125 38.625 C42.98978775 41.99825992 46.06829779 44.94857754 49.36230469 47.90185547 C56.49012295 54.36172946 63.2837404 61.13835963 70.078125 67.9453125 C71.38362329 69.25013535 72.68926983 70.55480988 73.99505615 71.85934448 C76.70259161 74.56541998 79.40834577 77.27326008 82.11279297 79.98242188 C85.58633061 83.46171909 89.0644244 86.93642209 92.5438118 90.40986824 C95.22720451 93.08966248 97.90822987 95.77181488 100.58852386 98.4547081 C101.87167656 99.73852882 103.1555751 101.02160452 104.44022369 102.30392838 C106.22070949 104.08189269 107.99798982 105.86299848 109.77441406 107.64501953 C110.3072551 108.17583633 110.84009613 108.70665314 111.38908386 109.2535553 C115 112.8857244 115 112.8857244 115 114 C77.05 114 39.1 114 0 114 C0 76.38 0 38.76 0 0 Z " fill="#0B168F" transform="translate(766,361)"/>
<path d="M0 0 C1.32 0 2.64 0 4 0 C4 6.27 4 12.54 4 19 C6.31 18.01 8.62 17.02 11 16 C16.22844924 15.44963692 19.65869291 15.97996028 24 19 C28.40573062 23.41732465 29.37010957 27.79427458 29.5625 33.9375 C29.27439978 41.40409736 27.9292285 47.14400221 22.5 52.4375 C18.29767175 55.06395515 15.60152211 56.27795574 10.5625 56.25 C9.63566406 56.25515625 8.70882812 56.2603125 7.75390625 56.265625 C5 56 5 56 0 54 C0 36.18 0 18.36 0 0 Z " fill="#FAFAFD" transform="translate(2275,742)"/>
<path d="M0 0 C4.004793 2.0023965 6.6587028 4.17998877 9 8 C10.29856962 11.89570887 10.26324136 15.62530392 10.3125 19.6875 C10.34150391 20.46544922 10.37050781 21.24339844 10.40039062 22.04492188 C10.46328712 27.84591417 9.23971373 32.15391639 6 37 C2.36420505 40.54711702 -0.56629785 41.28578227 -5.5 41.5 C-10.43370215 41.28578227 -13.36420505 40.54711702 -17 37 C-21.00997962 31.61818524 -21.37197726 26.89590696 -21.4375 20.375 C-21.44765137 19.64643799 -21.45780273 18.91787598 -21.46826172 18.16723633 C-21.37756624 12.5588066 -20.00020808 8.64157915 -16.5625 4.1015625 C-11.53172059 -0.65252405 -6.73420104 -1.19854558 0 0 Z " fill="#313DC5" transform="translate(1315,205)"/>
<path d="M0 0 C4.97259531 2.44109224 6.05287046 4.08811743 9 9 C9 13.29 9 17.58 9 22 C0.42 22 -8.16 22 -17 22 C-14.08327807 31.1957481 -14.08327807 31.1957481 -10.875 34.125 C-5.34696326 35.80744596 0.46165798 35.5860379 6 34 C6 35.32 6 36.64 6 38 C0.79539835 41.17353759 -5.12078138 40.57108226 -11 40 C-15.69279093 38.02408803 -18.2583527 35.18822693 -20.3046875 30.60546875 C-22.18679944 23.55283581 -22.40385161 15.03776698 -19.3125 8.3125 C-14.61593364 0.62417072 -8.48424092 -0.93834923 0 0 Z " fill="#EFEFF9" transform="translate(1376,205)"/>
<path d="M0 0 C3.35817253 3.04578439 4.43840062 5.06565217 5.6875 9.4375 C5.6875 13.0675 5.6875 16.6975 5.6875 20.4375 C-2.8925 20.4375 -11.4725 20.4375 -20.3125 20.4375 C-17.73028781 30.92014567 -17.73028781 30.92014567 -13.3125 33.4375 C-10.47465779 33.71784392 -10.47465779 33.71784392 -7.375 33.625 C-6.33472656 33.61855469 -5.29445313 33.61210938 -4.22265625 33.60546875 C-1.75183308 33.46285748 0.32927041 33.14781012 2.6875 32.4375 C2.6875 33.7575 2.6875 35.0775 2.6875 36.4375 C-3.10227014 38.87529795 -9.28994237 39.64350399 -15.37109375 37.8203125 C-19.5469908 35.79073673 -21.82733725 33.00544017 -23.66015625 28.7734375 C-25.65296333 21.63751755 -24.76150752 13.37868703 -22.3125 6.4375 C-17.59634042 -1.59743854 -8.2187795 -3.87678278 0 0 Z " fill="#3D48C7" transform="translate(2335.3125,758.5625)"/>
<path d="M0 0 C2.70421145 1.80280764 3.96809034 2.98413971 5.625 5.75 C6.04150391 8.65087891 6.04150391 8.65087891 6.1015625 11.9765625 C6.1325 13.1728125 6.1634375 14.3690625 6.1953125 15.6015625 C6.22238281 17.46941406 6.22238281 17.46941406 6.25 19.375 C6.30085259 21.84643605 6.35535002 24.31780068 6.4140625 26.7890625 C6.43162598 27.88428223 6.44918945 28.97950195 6.46728516 30.10791016 C6.44992652 32.7274552 6.44992652 32.7274552 7.625 34.75 C9.11 35.245 9.11 35.245 10.625 35.75 C10.625 36.74 10.625 37.73 10.625 38.75 C6.89012223 38.2520163 4.81262365 37.87508244 1.625 35.75 C1.026875 36.224375 0.42875 36.69875 -0.1875 37.1875 C-4.80310402 39.45005099 -9.24465196 40.148109 -14.375 39.75 C-17.6100153 38.16075947 -19.74450172 36.01099655 -21.375 32.75 C-21.73753442 28.90713512 -21.77517513 26.4981535 -19.9375 23.0625 C-14.03037977 17.73168418 -8.08602938 16.27525293 -0.24609375 16.609375 C0.37136719 16.65578125 0.98882813 16.7021875 1.625 16.75 C1.53766424 15.14482903 1.42947776 13.54078338 1.3125 11.9375 C1.25449219 11.04417969 1.19648438 10.15085937 1.13671875 9.23046875 C0.54372251 6.35602133 0.04318043 5.39243671 -2.375 3.75 C-4.74608878 3.27531351 -4.74608878 3.27531351 -7.3125 3.375 C-8.16714844 3.36726562 -9.02179687 3.35953125 -9.90234375 3.3515625 C-12.80668968 3.81956137 -14.06645143 5.0053349 -16.375 6.75 C-17.365 6.42 -18.355 6.09 -19.375 5.75 C-18.3945412 3.16515408 -17.43577857 1.80156969 -15.3125 0 C-10.06602001 -2.23254468 -5.3022712 -1.96380415 0 0 Z " fill="#3944C6" transform="translate(2393.375,758.25)"/>
<path d="M0 0 C3 2 3 2 5 4 C7.49361571 2.79618552 9.68143083 1.54571278 12 0 C16.37433428 -0.65237324 21.01269906 -1.03401151 25.01953125 1.05078125 C27.14793551 2.80632637 28.76188006 4.52376011 30 7 C30.08649451 9.48099734 30.11565054 11.93344928 30.09765625 14.4140625 C30.0962413 15.14370209 30.09482635 15.87334167 30.09336853 16.62509155 C30.08776531 18.95843585 30.07521235 21.29168464 30.0625 23.625 C30.05748541 25.20572778 30.05292243 26.78645707 30.04882812 28.3671875 C30.03779484 32.24482854 30.02052811 36.12239807 30 40 C28.68 40 27.36 40 26 40 C25.99589111 39.11739502 25.99178223 38.23479004 25.98754883 37.32543945 C25.96050016 34.0352396 25.91135049 30.74688602 25.84741211 27.45727539 C25.82428497 26.03649298 25.80984874 24.61554042 25.80444336 23.19458008 C25.79511339 21.14557534 25.75404834 19.0992265 25.70703125 17.05078125 C25.6913208 15.82012939 25.67561035 14.58947754 25.65942383 13.3215332 C24.82437706 9.11538317 23.33626082 7.61754101 20 5 C16.5 4.16666667 16.5 4.16666667 13 5 C9.66373918 7.61754101 8.17562294 9.11538317 7.34057617 13.3215332 C7.32486572 14.55218506 7.30915527 15.78283691 7.29296875 17.05078125 C7.27784744 17.70958786 7.26272614 18.36839447 7.24714661 19.04716492 C7.20441434 21.135962 7.19544735 23.2233102 7.1875 25.3125 C7.16434386 26.73506417 7.13897617 28.15759417 7.11132812 29.58007812 C7.04862384 33.05335804 7.01617216 36.52615613 7 40 C5.68 40 4.36 40 3 40 C2.9906543 39.08186523 2.98130859 38.16373047 2.97167969 37.21777344 C2.92760069 33.80294722 2.86596268 30.38936892 2.79248047 26.97509766 C2.76429912 25.49897804 2.74307034 24.02270831 2.72900391 22.54638672 C2.70753302 20.42076943 2.66086957 18.29695121 2.609375 16.171875 C2.58842773 14.8940918 2.56748047 13.61630859 2.54589844 12.29980469 C1.91314425 8.47498108 1.10100115 7.26071192 -2 5 C-5.45728358 4.24988633 -5.45728358 4.24988633 -9 5 C-12.34202508 7.61336553 -13.82413573 9.11416758 -14.65942383 13.3215332 C-14.67513428 14.55218506 -14.69084473 15.78283691 -14.70703125 17.05078125 C-14.72215256 17.70958786 -14.73727386 18.36839447 -14.75285339 19.04716492 C-14.79558566 21.135962 -14.80455265 23.2233102 -14.8125 25.3125 C-14.83565614 26.73506417 -14.86102383 28.15759417 -14.88867188 29.58007812 C-14.95137616 33.05335804 -14.98382784 36.52615613 -15 40 C-16.32 40 -17.64 40 -19 40 C-19 27.13 -19 14.26 -19 1 C-18.01 1 -17.02 1 -16 1 C-15.34 1.66 -14.68 2.32 -14 3 C-13.175 2.505 -12.35 2.01 -11.5 1.5 C-7.07929734 -0.39458685 -4.77916512 -0.53101835 0 0 Z " fill="#F9F9FD" transform="translate(1256,205)"/>
<path d="M0 0 C1.32 0 2.64 0 4 0 C4 6.27 4 12.54 4 19 C6.31 18.01 8.62 17.02 11 16 C16.22844924 15.44963692 19.65869291 15.97996028 24 19 C28.40573062 23.41732465 29.37010957 27.79427458 29.5625 33.9375 C29.27439978 41.40409736 27.9292285 47.14400221 22.5 52.4375 C18.29767175 55.06395515 15.60152211 56.27795574 10.5625 56.25 C9.63566406 56.25515625 8.70882812 56.2603125 7.75390625 56.265625 C5 56 5 56 0 54 C0 36.18 0 18.36 0 0 Z M4 24 C3.29822627 26.96782308 3.29822627 26.96782308 3.4765625 30.26171875 C3.48816406 31.46248047 3.49976562 32.66324219 3.51171875 33.90039062 C3.54910156 35.15013672 3.58648438 36.39988281 3.625 37.6875 C3.63917969 38.94884766 3.65335938 40.21019531 3.66796875 41.50976562 C3.22842914 47.13050568 3.22842914 47.13050568 5 52 C10.21654163 52.54209376 14.67493124 52.59154855 19.5 50.4375 C24.53465629 45.52871012 25.19665437 41.25886974 25.4375 34.4375 C25.31102123 28.93567365 24.78292106 25.99908798 21 22 C17.95267415 19.96844943 17.10580195 19.68439935 13.625 19.625 C12.87476562 19.59664062 12.12453125 19.56828125 11.3515625 19.5390625 C7.99183161 20.1976144 6.42020697 21.60332144 4 24 Z " fill="#333FC5" transform="translate(2275,742)"/>
<path d="M0 0 C4.004793 2.0023965 6.6587028 4.17998877 9 8 C10.29856962 11.89570887 10.26324136 15.62530392 10.3125 19.6875 C10.34150391 20.46544922 10.37050781 21.24339844 10.40039062 22.04492188 C10.46328712 27.84591417 9.23971373 32.15391639 6 37 C2.36420505 40.54711702 -0.56629785 41.28578227 -5.5 41.5 C-10.43370215 41.28578227 -13.36420505 40.54711702 -17 37 C-21.00997962 31.61818524 -21.37197726 26.89590696 -21.4375 20.375 C-21.44765137 19.64643799 -21.45780273 18.91787598 -21.46826172 18.16723633 C-21.37756624 12.5588066 -20.00020808 8.64157915 -16.5625 4.1015625 C-11.53172059 -0.65252405 -6.73420104 -1.19854558 0 0 Z M-14 7 C-17.67706089 12.95937454 -17.81821242 19.13413059 -17 26 C-15.56768289 30.8586443 -14.27017034 34.15321977 -10 37 C-5.52791917 37.72022276 -2.01330547 37.58211165 1.9375 35.3125 C5.98254823 30.77714289 6.29450585 26.51856352 6.3125 20.5625 C6.32925781 19.28503906 6.34601563 18.00757813 6.36328125 16.69140625 C5.87835785 11.76395883 4.58914552 8.32428793 0.75 5.125 C-4.66344696 2.91040806 -9.51208412 3.13540577 -14 7 Z " fill="#F1F1FA" transform="translate(1315,205)"/>
<path d="M0 0 C1.29144554 -0.00512655 2.58289109 -0.0102531 3.91347134 -0.015535 C7.49181674 -0.02893641 11.06908239 -0.00497465 14.64729023 0.02513337 C18.50816076 0.05105934 22.36897107 0.04227486 26.22990417 0.03771973 C32.91706631 0.03457454 39.60387703 0.05338933 46.29095078 0.08714676 C55.95925814 0.13592215 65.62739568 0.15153675 75.29581274 0.15907471 C90.98230847 0.17220446 106.66861693 0.21212858 122.35501099 0.26889038 C137.59230615 0.32396975 152.82955043 0.36643773 168.06692505 0.39193726 C169.47591595 0.39430177 169.47591595 0.39430177 170.91337131 0.39671405 C175.62572963 0.40454431 180.33808831 0.41212655 185.05044723 0.41958547 C224.14038085 0.48177953 263.23010543 0.58745295 302.31985474 0.7215271 C302.31985474 1.0515271 302.31985474 1.3815271 302.31985474 1.7215271 C301.65733887 1.72174447 300.99482299 1.72196184 300.31223089 1.72218579 C261.06474776 1.73569537 221.81736764 1.7751457 182.56994851 1.84838272 C177.85971251 1.8571497 173.14947614 1.86569946 168.4392395 1.87411499 C167.03262727 1.87663358 167.03262727 1.87663358 165.59759863 1.87920306 C150.40463373 1.90588841 135.21170654 1.91496924 120.0187206 1.91756853 C104.43464258 1.92062567 88.85067382 1.94254466 73.26664513 1.98205167 C63.64685545 2.00584191 54.02728372 2.01483861 44.40746864 2.00504021 C37.81491101 1.99973321 31.22254908 2.01271205 24.63004718 2.04019 C20.82381034 2.05551089 17.01801134 2.06265447 13.21176147 2.04812431 C9.08804366 2.03259253 4.96544125 2.05550809 0.84178162 2.08229065 C-0.36541194 2.07161739 -1.5726055 2.06094413 -2.81638068 2.04994744 C-9.49574355 1.93932901 -9.49574355 1.93932901 -14.96276569 5.26147938 C-15.81286858 6.479203 -15.81286858 6.479203 -16.68014526 7.7215271 C-17.34014526 7.3915271 -18.00014526 7.0615271 -18.68014526 6.7215271 C-13.37904415 -0.37442409 -8.48241186 -0.12270402 0 0 Z " fill="#0E1B82" transform="translate(539.6801452636719,582.2784729003906)"/>
<path d="M0 0 C0.33 0 0.66 0 1 0 C1 81.51 1 163.02 1 247 C2.65 246.01 4.3 245.02 6 244 C6 244.66 6 245.32 6 246 C7.32 246.33 8.64 246.66 10 247 C9.75 249.375 9.75 249.375 9 252 C7.02 252.99 7.02 252.99 5 254 C1.535 250.535 1.535 250.535 -2 247 C-1.34 246.67 -0.68 246.34 0 246 C0 164.82 0 83.64 0 0 Z " fill="#080C7F" transform="translate(459,402)"/>
<path d="M0 0 C0.99 0 1.98 0 3 0 C3 3.3 3 6.6 3 10 C6.63 10 10.26 10 14 10 C14 10.99 14 11.98 14 13 C10.37 13 6.74 13 3 13 C3.33 23.23 3.66 33.46 4 44 C7.63 44 11.26 44 15 44 C15.33 45.32 15.66 46.64 16 48 C11.92627115 48.98757063 8.18508673 49.38046243 4 49 C1.63502561 47.13291495 0.33969285 45.67938569 -1 43 C-1.08573394 40.74879258 -1.10712188 38.49500697 -1.09765625 36.2421875 C-1.0962413 35.57913605 -1.09482635 34.91608459 -1.09336853 34.23294067 C-1.08776754 32.11358137 -1.075215 29.99432741 -1.0625 27.875 C-1.05748512 26.43880361 -1.05292219 25.00260556 -1.04882812 23.56640625 C-1.03779782 20.04423655 -1.02053259 16.52212855 -1 13 C-2.98 13 -4.96 13 -7 13 C-7 12.34 -7 11.68 -7 11 C-5.02 10.67 -3.04 10.34 -1 10 C-0.67 6.7 -0.34 3.4 0 0 Z " fill="#323DC5" transform="translate(2352,748)"/>
<path d="M0 0 C3.09799981 2.19126816 3.80352112 3.41056336 5 7 C5 9.31 5 11.62 5 14 C-1.93 14 -8.86 14 -16 14 C-16 7.15371415 -15.99111177 5.9301969 -12 1 C-8.30846481 -0.8457676 -4.02978061 -0.48175083 0 0 Z " fill="#F9FAFD" transform="translate(2332,761)"/>
<path d="M0 0 C0.92311467 9.76108294 0.92311467 9.76108294 -2.375 14.1875 C-5.93670597 16.51663469 -9.57326996 16.56002038 -13.73046875 16.56640625 C-16 16 -16 16 -17.796875 14.18359375 C-19 12 -19 12 -19.0625 8.5 C-18 5 -18 5 -15.375 2.625 C-10.26156074 0.16297369 -5.58065927 -0.03815835 0 0 Z " fill="#F8F8FC" transform="translate(2395,778)"/>
<path d="M0 0 C4.56944444 2.13888889 4.56944444 2.13888889 6 5 C6 7.97 6 10.94 6 14 C-0.6 14 -7.2 14 -14 14 C-14 5.69252364 -14 5.69252364 -9.84765625 1.32421875 C-6.44481577 -1.1146035 -4.08440503 -0.64831826 0 0 Z " fill="#2F3BC4" transform="translate(1374,209)"/>
<path d="M0 0 C0.33 0 0.66 0 1 0 C1 34.65 1 69.3 1 105 C18.03625 104.87625 35.0725 104.7525 52.625 104.625 C60.68736084 104.57400146 60.68736084 104.57400146 68.91259766 104.52197266 C73.73980312 104.48205403 73.73980312 104.48205403 78.56698608 104.43954468 C80.7133626 104.42188468 82.85977287 104.40806839 85.00619507 104.39730835 C88.26159884 104.38023718 91.51668634 104.35088726 94.77197266 104.31884766 C95.7246937 104.31667551 96.67741474 104.31450336 97.65900612 104.3122654 C102.50004018 104.25102359 106.45553334 103.88664952 111 102 C112.485 103.98 112.485 103.98 114 106 C76.38 106 38.76 106 0 106 C0 71.02 0 36.04 0 0 Z " fill="#000A83" transform="translate(767,369)"/>
<path d="M0 0 C0.33 1.32 0.66 2.64 1 4 C-0.03060547 4.16435547 -0.03060547 4.16435547 -1.08203125 4.33203125 C-1.98308594 4.49058594 -2.88414063 4.64914063 -3.8125 4.8125 C-5.15248047 5.03873047 -5.15248047 5.03873047 -6.51953125 5.26953125 C-9.38287304 6.11275159 -10.25483538 6.59637611 -12 9 C-12.50858908 12.29271596 -12.50858908 12.29271596 -12.51171875 16.07421875 C-12.53864555 17.09996758 -12.53864555 17.09996758 -12.56611633 18.1464386 C-12.62022075 20.32673 -12.6541134 22.50680256 -12.6875 24.6875 C-12.7206732 26.16734817 -12.75516287 27.64716745 -12.79101562 29.12695312 C-12.87594524 32.75109169 -12.94275635 36.37530652 -13 40 C-14.32 40 -15.64 40 -17 40 C-17 27.13 -17 14.26 -17 1 C-16.01 1 -15.02 1 -14 1 C-13.34 1.66 -12.68 2.32 -12 3 C-11.13375 2.505 -10.2675 2.01 -9.375 1.5 C-5.89250377 -0.0477761 -3.75240542 -0.26802896 0 0 Z " fill="#FCFCFE" transform="translate(1351,205)"/>
<path d="M0 0 C0 4.17936608 -1.75191695 5.28410723 -4.5625 8.3125 C-5.01560547 8.80306885 -5.46871094 9.2936377 -5.93554688 9.79907227 C-8.49013277 12.52664374 -11.11787775 15.06112013 -14 17.4375 C-16.99737657 19.65528419 -16.99737657 19.65528419 -18 22.03515625 C-19 24 -19 24 -22 26 C-22.99 25.67 -23.98 25.34 -25 25 C-16.75 16.75 -8.5 8.5 0 0 Z " fill="#0F1777" transform="translate(519,591)"/>
<path d="M0 0 C0.33 0.66 0.66 1.32 1 2 C3.02463255 2.65213292 3.02463255 2.65213292 5 3 C4.75 5.375 4.75 5.375 4 8 C1.9375 9.3125 1.9375 9.3125 0 10 C-0.99 8.68 -1.98 7.36 -3 6 C-2.67 5.34 -2.34 4.68 -2 4 C-2.66 3.67 -3.32 3.34 -4 3 C-2.68 2.01 -1.36 1.02 0 0 Z " fill="#23367C" transform="translate(464,646)"/>
<path d="M0 0 C0.33 0.99 0.66 1.98 1 3 C0.01 3.33 -0.98 3.66 -2 4 C-2.28875 4.598125 -2.5775 5.19625 -2.875 5.8125 C-4.35344867 8.6872613 -6.46239719 10.04799784 -9 12 C-9.33 12.66 -9.66 13.32 -10 14 C-9.34 14 -8.68 14 -8 14 C-8 14.66 -8 15.32 -8 16 C-9.65 16 -11.3 16 -13 16 C-11.57699887 11.31095412 -8.84303666 8.48389525 -5.375 5.1875 C-4.859375 4.68541016 -4.34375 4.18332031 -3.8125 3.66601562 C-2.54840846 2.43703773 -1.27511194 1.21753999 0 0 Z " fill="#14207F" transform="translate(477,633)"/>
<path d="M0 0 C0.33 0.66 0.66 1.32 1 2 C-0.07192184 3.3218362 -1.15802695 4.63217927 -2.25 5.9375 C-2.85328125 6.66839844 -3.4565625 7.39929688 -4.078125 8.15234375 C-6.10741134 10.10326334 -7.254407 10.61731779 -10 11 C-6.79239749 7.19364503 -3.59253891 3.45436433 0 0 Z " fill="#1D247E" transform="translate(488,622)"/>
<path d="M0 0 C0.66 0 1.32 0 2 0 C2.12375 0.5775 2.2475 1.155 2.375 1.75 C3.02543497 4.37005387 3.02543497 4.37005387 5 8 C2.69 6.02 0.38 4.04 -2 2 C-1.34 1.34 -0.68 0.68 0 0 Z " fill="#0E1582" transform="translate(428,616)"/>
</svg>
